<svg xmlns="http://www.w3.org/2000/svg" width="1024" height="1024" viewBox="0 0 1024 1024">
<g>
<path d="M 481.00 706.44 L 481.00 674.88 L 484.75 675.19 C488.17,675.47 488.53,675.78 488.81,678.75 L 489.13 681.99 L 492.81 679.05 C502.07,671.65 517.06,673.58 523.92,683.05 C531.53,693.56 529.96,708.94 520.47,716.76 C512.51,723.33 500.48,723.64 493.14,717.46 C491.53,716.11 489.94,715.00 489.61,715.00 C489.27,715.00 489.00,720.17 489.00,726.50 L 489.00 738.00 L 485.00 738.00 L 481.00 738.00 L 481.00 706.44 ZM 514.98 711.14 C516.94,709.56 519.09,706.58 519.83,704.40 C521.50,699.53 520.70,691.43 518.20,688.01 C514.32,682.68 504.62,680.26 498.06,682.97 C496.46,683.64 493.88,686.02 492.32,688.26 C489.96,691.66 489.50,693.35 489.50,698.57 C489.50,704.06 489.88,705.28 492.59,708.66 C498.20,715.62 508.06,716.71 514.98,711.14 ZM 329.31 719.56 C310.09,710.62 312.90,680.51 333.48,674.85 C338.73,673.40 347.14,675.07 351.96,678.50 L 355.50 681.02 L 356.00 668.26 L 356.50 655.50 L 360.00 655.50 L 363.50 655.50 L 363.76 688.53 L 364.03 721.56 L 360.01 721.17 C356.29,720.82 356.00,720.57 356.00,717.74 C356.00,714.89 355.89,714.79 354.23,716.29 C351.04,719.18 343.59,721.96 339.00,721.97 C336.32,721.98 332.40,721.00 329.31,719.56 ZM 344.50 713.90 C352.00,711.86 356.00,706.24 356.00,697.80 C355.99,688.15 349.93,682.01 340.40,682.00 C329.53,682.00 322.37,691.64 325.12,702.58 C326.77,709.10 331.86,713.32 340.00,714.89 C340.27,714.95 342.30,714.50 344.50,713.90 ZM 391.00 720.05 C378.40,715.72 372.34,700.67 378.08,688.00 C382.24,678.82 388.80,674.64 399.00,674.64 C412.15,674.64 420.10,682.17 421.37,695.83 L 421.85 701.00 L 408.67 701.02 C396.82,701.05 385.03,701.77 384.18,702.53 C384.00,702.69 384.51,704.09 385.32,705.66 C390.02,714.74 401.72,717.40 410.56,711.39 L 414.25 708.89 L 416.70 711.19 L 419.14 713.48 L 416.11 716.19 C412.84,719.11 404.52,722.02 399.57,721.97 C397.88,721.95 394.02,721.08 391.00,720.05 ZM 414.00 693.96 C414.00,693.39 413.07,691.10 411.94,688.89 C409.78,684.64 403.92,681.07 399.07,681.02 C395.10,680.99 388.23,684.90 386.04,688.44 C382.05,694.89 382.28,695.00 399.00,695.00 C408.72,695.00 414.00,694.63 414.00,693.96 ZM 553.48 721.09 C548.72,719.92 545.07,717.04 542.70,712.60 C540.76,708.95 540.48,706.66 540.17,691.68 L 539.83 674.87 L 543.66 675.18 L 547.50 675.50 L 548.00 691.50 C548.53,708.40 549.12,710.66 553.68,713.10 C557.13,714.94 564.86,714.50 567.83,712.28 C573.50,708.04 573.91,706.64 574.22,690.50 L 574.50 675.50 L 578.25 675.19 L 582.00 674.88 L 582.00 697.94 L 582.00 721.00 L 578.17 721.00 C574.49,721.00 574.36,720.89 574.79,718.00 C575.27,714.69 573.99,714.10 571.87,716.65 C569.00,720.11 559.15,722.49 553.48,721.09 ZM 630.35 721.09 C624.30,720.07 618.00,716.98 618.00,715.04 C618.00,714.13 618.59,712.57 619.32,711.58 C620.58,709.85 620.82,709.87 624.95,711.97 C633.62,716.40 645.32,715.57 646.60,710.45 C647.99,704.92 646.59,703.96 630.90,699.59 C623.11,697.42 620.00,694.10 620.00,687.94 C620.00,678.57 626.53,674.43 640.05,675.21 C649.05,675.73 653.16,677.69 652.28,681.05 C651.51,683.98 650.00,684.32 645.73,682.53 C639.38,679.88 630.14,680.84 627.77,684.40 C626.32,686.57 627.04,689.98 629.25,691.39 C630.49,692.18 635.19,693.81 639.70,695.01 C650.60,697.91 654.00,700.98 654.00,707.93 C654.00,711.73 653.43,713.53 651.47,715.86 C647.73,720.30 638.80,722.52 630.35,721.09 ZM 681.00 721.06 C670.07,718.86 662.77,709.87 662.72,698.55 C662.69,691.58 664.43,686.86 668.92,681.74 C673.42,676.62 679.30,674.61 687.98,675.23 C694.11,675.67 695.49,676.16 699.24,679.23 C704.07,683.19 707.01,689.83 707.00,696.75 L 707.00 701.00 L 689.17 701.00 C679.36,701.00 671.07,701.26 670.75,701.59 C669.61,702.72 672.23,708.01 675.14,710.46 C679.74,714.34 685.24,715.62 690.84,714.12 C693.40,713.44 696.52,711.91 697.78,710.74 L 700.05 708.60 L 702.66 711.20 L 705.26 713.80 L 701.08 716.83 C698.78,718.49 694.65,720.34 691.90,720.93 C686.45,722.10 686.14,722.10 681.00,721.06 ZM 700.00 693.25 C699.99,690.41 696.27,685.13 692.76,682.99 C684.76,678.12 673.29,683.15 670.52,692.75 L 669.87 695.00 L 684.93 695.00 C698.62,695.00 700.00,694.84 700.00,693.25 ZM 445.00 720.02 C445.00,719.49 440.73,709.39 435.50,697.58 C430.27,685.77 426.00,675.86 426.00,675.55 C426.00,675.25 427.71,675.00 429.81,675.00 L 433.62 675.00 L 441.46 693.10 C446.83,705.49 449.56,710.75 450.12,709.76 C450.74,708.65 461.66,683.54 464.69,676.25 C465.13,675.20 473.00,674.33 473.00,675.33 C473.00,675.52 468.91,685.08 463.91,696.58 C458.91,708.09 454.58,718.29 454.29,719.25 C453.90,720.57 452.69,721.00 449.38,721.00 C446.97,721.00 445.00,720.56 445.00,720.02 ZM 598.00 688.50 L 598.00 656.00 L 602.00 656.00 L 606.00 656.00 L 606.00 688.50 L 606.00 721.00 L 602.00 721.00 L 598.00 721.00 L 598.00 688.50 ZM 452.10 542.41 L 393.58 483.50 L 403.83 483.21 L 414.07 482.93 L 463.47 532.71 L 512.87 582.50 L 521.70 573.75 C526.56,568.94 530.95,565.00 531.44,565.00 C531.94,565.00 533.16,565.74 534.15,566.64 C535.15,567.54 538.22,568.79 540.98,569.41 L 545.99 570.54 L 531.24 585.21 C521.55,594.86 515.49,600.13 513.56,600.60 C510.73,601.29 508.41,599.09 452.10,542.41 ZM 346.12 559.30 C343.72,558.45 340.02,556.02 337.92,553.92 C332.28,548.28 330.39,540.73 328.57,516.50 C327.75,505.50 326.44,494.40 325.66,491.82 C322.53,481.50 316.25,476.00 304.85,473.58 C301.28,472.82 299.61,468.15 301.03,462.88 C301.94,459.51 302.55,458.94 306.28,457.99 C317.49,455.16 322.64,450.49 325.52,440.56 C326.33,437.78 327.65,426.66 328.46,415.86 C330.45,389.52 331.74,384.26 337.86,377.66 C342.41,372.76 347.59,370.77 357.28,370.22 L 366.09 369.72 L 365.79 377.61 L 365.50 385.50 L 359.00 386.00 C346.78,386.94 346.37,387.79 343.89,417.09 C341.35,446.97 338.94,454.58 329.33,463.01 L 325.99 465.95 L 330.51 470.12 C335.99,475.16 340.46,484.13 341.94,493.00 C342.54,496.58 343.66,507.95 344.44,518.28 C346.32,543.21 347.88,545.95 360.25,545.99 L 366.00 546.00 L 366.00 553.50 L 366.00 561.00 L 358.25 560.92 C353.99,560.88 348.53,560.15 346.12,559.30 ZM 659.21 553.75 L 659.50 546.50 L 667.31 546.00 C674.16,545.56 675.35,545.19 677.01,543.00 C679.34,539.92 680.60,532.09 682.01,512.00 C683.75,487.24 686.85,477.83 695.88,469.88 L 700.32 465.97 L 696.22 462.45 C690.58,457.63 686.16,449.48 684.46,440.77 C683.67,436.77 682.37,424.91 681.55,414.41 C680.74,403.91 679.65,394.23 679.14,392.91 C677.24,387.97 673.77,385.95 666.14,385.31 L 659.00 384.71 L 659.00 377.85 L 659.00 371.00 L 667.39 371.00 C678.12,371.00 684.83,374.09 689.66,381.27 C693.81,387.42 694.79,392.49 696.51,416.48 C697.30,427.49 698.39,438.00 698.93,439.83 C701.77,449.47 707.90,455.24 718.21,457.99 C722.20,459.05 723.09,459.74 724.01,462.54 C724.69,464.60 724.78,467.08 724.24,469.17 C723.47,472.16 722.81,472.65 717.84,474.00 C709.95,476.13 704.78,480.08 701.72,486.28 C698.70,492.41 697.50,499.73 695.92,521.50 C694.47,541.53 692.64,547.97 686.78,553.72 C681.39,559.00 675.79,561.00 666.33,561.00 L 658.91 561.00 L 659.21 553.75 ZM 539.24 558.24 C538.16,557.16 535.81,549.55 533.13,538.49 C530.74,528.60 522.97,496.65 515.87,467.50 C496.57,388.23 497.79,392.88 496.79,394.58 C496.49,395.09 494.16,403.15 491.61,412.50 C468.00,499.00 468.04,498.89 461.97,498.97 C457.76,499.02 455.53,496.56 448.87,484.54 L 442.50 473.02 L 401.90 473.01 C363.85,473.00 361.21,472.89 359.65,471.17 C357.19,468.45 357.53,462.79 360.31,460.17 C362.62,458.01 362.86,458.00 405.38,458.00 C431.82,458.00 448.84,458.38 449.99,458.99 C451.01,459.54 453.53,462.76 455.59,466.15 C459.15,472.00 459.38,472.20 460.24,469.91 C461.51,466.51 482.35,391.57 487.05,373.50 C491.22,357.50 492.69,355.00 497.94,355.00 C501.05,355.00 504.59,358.31 505.41,362.00 C505.71,363.38 511.54,387.23 518.35,415.00 C525.16,442.77 533.75,477.99 537.44,493.25 C541.14,508.51 544.36,521.00 544.60,521.00 C545.48,521.00 547.14,515.38 554.01,489.17 C558.93,470.42 561.59,461.97 563.02,460.54 C565.00,458.55 566.31,458.49 613.43,458.21 L 661.80 457.93 L 664.57 460.31 C667.86,463.14 668.28,467.93 665.51,470.99 C663.74,472.95 662.52,473.00 618.51,473.00 L 573.33 473.00 L 568.16 492.75 C555.56,540.89 551.20,556.12 549.49,558.01 C547.22,560.52 541.64,560.64 539.24,558.24 ZM 563.48 550.25 C563.87,549.29 565.55,543.27 567.21,536.87 L 570.25 525.24 L 591.42 504.08 L 612.60 482.92 L 622.05 483.21 L 631.50 483.50 L 606.90 508.50 C593.37,522.25 578.35,537.66 573.52,542.75 C565.05,551.67 562.01,553.94 563.48,550.25 ZM 487.00 500.00 L 487.00 464.00 L 496.50 464.00 L 506.00 464.00 L 506.00 487.84 C506.00,500.96 506.29,517.16 506.65,523.84 L 507.31 536.00 L 497.15 536.00 L 487.00 536.00 L 487.00 500.00 ZM 459.20 515.29 C459.47,510.09 459.73,509.49 461.75,509.38 C462.99,509.31 464.98,509.19 466.18,509.12 C467.38,509.06 470.54,506.75 473.19,504.00 C475.84,501.25 478.25,499.00 478.54,499.00 C478.83,499.00 478.94,503.84 478.78,509.75 L 478.50 520.50 L 468.70 520.79 L 458.90 521.07 L 459.20 515.29 ZM 540.67 463.62 C539.32,456.76 539.00,448.90 539.00,422.53 L 539.00 389.92 L 548.25 390.21 L 557.50 390.50 L 557.50 420.00 L 557.50 449.50 L 554.74 453.11 C553.17,455.16 551.18,459.89 550.11,464.11 C548.35,471.06 548.07,471.52 545.29,471.80 C542.33,472.10 542.33,472.10 540.67,463.62 ZM 378.59 445.18 C372.61,433.60 370.79,408.00 374.86,392.71 C379.27,376.17 390.79,358.80 404.00,348.76 C412.06,342.63 426.28,335.75 435.39,333.56 C443.16,331.70 462.12,331.34 469.14,332.93 C478.46,335.04 493.96,341.50 495.44,343.90 C495.76,344.42 494.33,345.38 492.26,346.04 C490.19,346.70 487.14,348.52 485.48,350.09 L 482.46 352.95 L 476.48 350.54 C467.61,346.97 455.22,345.50 445.25,346.85 C429.62,348.95 418.98,354.20 407.46,365.50 C387.10,385.47 381.55,414.07 392.84,440.93 L 395.81 448.00 L 387.93 448.00 C380.30,448.00 380.01,447.91 378.59,445.18 ZM 408.41 446.63 C408.12,445.88 408.02,442.84 408.19,439.88 L 408.50 434.50 L 418.00 434.50 L 427.50 434.50 L 427.80 441.25 L 428.09 448.00 L 418.51 448.00 C411.33,448.00 408.81,447.66 408.41,446.63 ZM 437.00 431.00 L 437.00 414.00 L 446.50 414.00 L 456.00 414.00 L 456.00 431.00 L 456.00 448.00 L 446.50 448.00 L 437.00 448.00 L 437.00 431.00 ZM 567.80 446.25 C567.56,445.29 567.39,437.30 567.43,428.50 L 567.50 412.50 L 576.50 412.50 L 585.50 412.50 L 585.77 430.25 L 586.05 448.00 L 577.14 448.00 C569.49,448.00 568.17,447.75 567.80,446.25 ZM 596.00 416.00 L 596.00 384.00 L 604.85 384.00 L 613.69 384.00 L 614.40 415.00 C614.80,432.05 614.84,446.45 614.50,447.00 C614.16,447.55 609.86,448.00 604.94,448.00 L 596.00 448.00 L 596.00 416.00 ZM 633.59 439.75 C641.38,420.30 639.87,396.26 629.77,379.26 C624.90,371.06 613.48,359.54 606.00,355.28 C593.22,348.01 575.52,344.70 561.53,346.98 C548.34,349.12 535.15,356.16 524.66,366.65 C521.54,369.77 518.83,372.13 518.65,371.91 C518.47,371.68 517.51,368.13 516.53,364.01 L 514.75 356.52 L 521.07 350.71 C533.66,339.13 553.07,331.99 571.94,332.01 C594.15,332.02 612.23,339.35 628.27,354.83 C634.89,361.22 643.60,373.50 645.77,379.50 C646.37,381.15 647.78,384.96 648.92,387.96 C653.94,401.24 654.13,423.72 649.37,439.25 L 646.68 448.00 L 638.48 448.00 L 630.28 448.00 L 633.59 439.75 ZM 414.66 423.87 C413.64,423.28 412.17,421.27 411.39,419.40 C410.39,417.00 408.36,415.09 404.49,412.91 C401.47,411.20 399.01,409.51 399.03,409.15 C399.05,408.79 399.67,407.69 400.42,406.71 C401.70,405.02 402.07,405.09 407.04,408.02 C411.70,410.77 412.61,410.99 415.13,409.95 C416.69,409.30 419.11,409.06 420.52,409.42 C422.70,409.96 424.23,408.99 430.93,402.78 C437.54,396.66 438.80,394.98 438.89,392.20 C439.03,388.13 442.87,384.00 446.53,384.00 C449.85,384.00 455.00,389.01 455.00,392.24 C455.00,393.99 456.76,396.05 461.51,399.86 C467.19,404.41 467.89,405.33 466.98,407.04 C466.40,408.12 465.70,409.00 465.41,409.00 C465.12,409.00 462.22,406.84 458.97,404.21 C453.31,399.63 452.77,399.42 447.01,399.49 L 440.98 399.57 L 433.49 407.01 C427.70,412.76 426.00,415.09 426.00,417.27 C426.00,422.83 419.44,426.65 414.66,423.87 Z" fill="rgba(0,0,0,1)"/>
</g>
</svg>