<svg xmlns="http://www.w3.org/2000/svg" width="1024" height="1024" viewBox="0 0 1024 1024">
<g>
<path d="M 366.00 546.00 L 366.00 561.00 L 358.75 560.96 C350.51,560.91 345.58,559.44 340.41,555.50 C332.54,549.50 331.40,545.61 329.06,517.00 C327.08,492.68 325.94,487.81 320.79,481.56 C317.53,477.60 311.16,474.06 307.25,474.02 C303.67,473.99 301.00,470.56 301.00,466.00 C301.00,461.44 303.67,458.01 307.25,457.98 C310.84,457.94 317.41,454.53 320.73,450.97 C326.12,445.20 327.17,439.98 329.96,405.00 C330.87,393.68 332.48,387.24 335.63,382.45 C338.09,378.69 345.07,374.00 348.21,374.00 C349.76,374.00 351.85,373.49 352.85,372.86 C354.10,372.08 355.90,372.01 358.55,372.64 C361.90,373.43 362.53,374.04 363.18,377.03 C364.27,382.05 363.53,383.36 360.03,382.66 C358.40,382.33 355.61,382.68 353.79,383.45 C346.44,386.52 344.12,392.40 344.09,408.00 C344.06,418.56 342.54,434.84 340.86,442.50 C339.33,449.47 334.42,458.39 329.85,462.52 L 325.99 466.00 L 330.08 469.69 C334.98,474.12 339.51,482.71 341.45,491.25 C342.23,494.69 343.38,505.38 344.01,515.00 C345.35,535.47 346.17,539.33 350.00,543.16 C352.55,545.70 353.53,546.00 359.42,546.00 ZM 351.22 718.06 C341.49,724.11 329.93,722.38 322.35,713.74 C318.03,708.82 316.65,704.03 317.27,696.11 C317.86,688.54 319.79,684.20 324.17,680.51 C329.87,675.71 332.75,674.77 340.49,675.16 C346.46,675.46 348.30,675.99 351.28,678.26 C353.25,679.77 355.35,681.00 355.93,681.00 C356.63,681.00 357.00,676.69 357.00,668.50 L 357.00 656.00 L 364.00 656.00 L 364.00 721.00 L 360.50 721.00 C357.28,721.00 357.00,720.76 357.00,718.00 C357.00,716.35 356.80,715.00 356.57,715.00 C356.33,715.00 353.92,716.38 351.22,718.06 ZM 411.94 718.71 C401.50,723.89 389.90,721.90 382.38,713.63 C368.50,698.36 378.84,675.04 399.50,675.04 C412.90,675.04 420.98,683.20 420.99,696.75 L 421.00 701.00 L 405.75 701.17 C397.36,701.26 389.16,701.37 387.52,701.42 C382.82,701.55 383.09,704.48 388.27,709.43 C394.87,715.76 401.27,716.62 409.77,712.32 C414.75,709.80 415.17,709.74 416.77,711.34 C419.08,713.65 417.61,715.89 411.94,718.71 ZM 418.00 470.82 C412.23,471.40 397.51,472.17 385.31,472.54 L 363.11 473.21 L 360.56 470.65 C359.15,469.24 358.00,467.37 358.00,466.48 C358.00,464.52 359.90,460.77 361.40,459.77 C363.14,458.60 430.00,458.83 430.00,460.00 C430.00,460.55 430.69,461.00 431.54,461.00 C432.76,461.00 432.86,461.40 431.99,463.01 C430.83,465.19 430.91,465.26 436.50,466.50 C439.39,467.14 439.43,467.22 437.52,468.61 C436.43,469.40 433.96,469.99 432.02,469.91 C430.08,469.83 423.77,470.23 418.00,470.82 ZM 460.25 539.62 C458.74,539.69 456.58,540.05 455.46,540.43 C453.33,541.15 450.90,539.18 449.68,535.73 C449.33,534.76 448.03,533.57 446.78,533.08 C444.80,532.30 417.21,505.57 406.87,494.41 C404.88,492.26 402.21,489.79 400.95,488.93 C397.19,486.35 399.38,485.00 407.32,485.00 L 414.53 485.00 L 432.01 503.07 C441.63,513.01 450.56,522.91 451.85,525.07 C453.14,527.23 454.80,529.00 455.53,529.00 C457.21,529.00 463.00,535.96 463.00,537.98 C463.00,538.94 461.99,539.54 460.25,539.62 ZM 334.48 713.61 C341.44,716.64 350.04,713.91 354.06,707.40 C357.49,701.85 357.34,693.54 353.70,688.29 C350.22,683.27 347.45,682.00 339.96,682.00 C334.53,682.00 333.66,682.32 330.01,685.61 C325.42,689.76 323.52,695.17 324.53,701.19 C325.31,705.78 330.02,711.66 334.48,713.61 ZM 393.60 446.61 C393.22,447.59 391.26,448.00 387.00,448.00 L 380.93 448.00 L 378.89 443.25 C371.74,426.56 371.80,404.46 379.03,394.34 C380.66,392.05 382.01,389.57 382.03,388.84 C382.05,387.99 382.44,388.14 383.09,389.27 C383.66,390.25 384.46,390.83 384.88,390.58 C385.29,390.32 385.60,397.36 385.57,406.22 C385.52,418.27 385.82,422.44 386.75,422.75 C387.44,422.98 388.00,424.22 388.00,425.50 C388.00,426.79 389.38,431.75 391.07,436.53 C392.75,441.30 393.89,445.84 393.60,446.61 ZM 461.68 702.00 L 453.50 720.50 L 449.74 720.81 C446.85,721.05 445.83,720.70 445.31,719.31 C444.94,718.31 440.66,708.52 435.79,697.53 C430.93,686.55 427.18,676.96 427.47,676.22 C428.34,673.95 433.34,675.19 434.66,678.00 C435.31,679.38 438.85,687.36 442.53,695.74 C446.21,704.12 449.58,710.76 450.02,710.49 C450.46,710.22 452.25,706.54 454.01,702.31 C455.77,698.09 458.74,691.41 460.61,687.48 C462.47,683.55 464.00,679.82 464.00,679.20 C464.00,677.76 467.11,676.13 468.75,676.72 C471.38,677.66 469.57,684.13 461.68,702.00 ZM 385.25 695.34 C387.08,696.08 409.09,696.08 411.85,695.34 C413.82,694.82 414.10,694.25 413.61,691.82 C411.67,682.10 398.65,677.84 389.90,684.07 C385.21,687.41 382.41,694.19 385.25,695.34 ZM 466.59 545.49 C465.83,548.52 464.65,548.65 462.00,546.00 C459.84,543.84 459.63,543.05 460.77,541.50 C463.16,538.24 467.64,541.31 466.59,545.49 ZM 473.45 552.84 C468.64,555.03 467.77,554.06 471.04,550.13 C472.66,548.19 473.28,547.99 474.51,549.00 C476.59,550.74 476.38,551.50 473.45,552.84 ZM 424.00 440.50 C424.00,441.33 423.33,442.00 422.50,442.00 C421.67,442.00 421.00,441.33 421.00,440.50 C421.00,439.67 421.67,439.00 422.50,439.00 C423.33,439.00 424.00,439.67 424.00,440.50 ZM 481.34 559.55 C481.04,560.35 480.38,561.00 479.89,561.00 C478.46,561.00 478.87,559.26 480.45,558.66 C481.42,558.29 481.71,558.58 481.34,559.55 Z" fill="rgb(32,187,223)"/>
<path d="M 418.00 470.82 C423.77,470.23 430.08,469.83 432.02,469.91 C433.96,469.99 436.43,469.40 437.52,468.61 C439.43,467.22 439.39,467.14 436.50,466.50 C430.91,465.26 430.83,465.19 431.99,463.01 C432.86,461.40 432.76,461.00 431.54,461.00 C430.69,461.00 430.00,460.55 430.00,460.00 C430.00,458.88 368.36,458.62 361.91,459.63 C365.46,458.04 374.70,458.06 406.25,458.03 C410.22,458.03 413.84,458.02 417.14,458.01 C442.77,457.95 448.91,457.94 452.14,460.99 C453.57,462.35 454.44,464.31 456.17,467.13 C458.48,470.88 459.51,471.84 460.10,470.79 C460.72,469.67 471.05,433.43 475.00,418.50 C475.43,416.85 477.91,408.08 480.50,399.00 C483.09,389.92 485.43,381.50 485.71,380.28 C486.91,375.05 494.18,377.23 495.41,383.18 L 496.10 386.50 L 497.51 384.00 C498.29,382.62 498.95,380.76 498.96,379.86 C499.00,378.07 501.61,376.64 503.12,377.58 C503.64,377.90 503.94,380.89 503.78,384.22 C503.59,388.39 503.89,390.43 504.75,390.73 C505.49,390.99 506.00,390.32 506.00,389.08 C506.00,387.94 506.38,387.00 506.85,387.00 C508.06,387.00 511.34,394.64 510.63,395.80 C510.30,396.33 510.92,397.90 512.01,399.29 C513.11,400.68 514.00,402.98 514.00,404.41 C514.00,405.84 514.90,408.69 516.00,410.74 C517.10,412.79 518.00,416.22 518.00,418.37 C518.00,420.51 518.84,423.67 519.86,425.38 C521.72,428.49 523.46,435.17 537.00,491.25 C540.95,507.61 544.54,521.00 544.98,521.00 C545.00,521.00 545.02,521.00 545.05,521.00 C545.13,521.00 545.21,521.00 545.28,520.99 C545.91,520.85 546.27,519.43 549.96,505.50 C551.71,498.90 553.96,491.70 554.97,489.50 C555.98,487.30 557.10,483.37 557.46,480.77 C558.25,475.07 559.43,474.12 562.35,476.86 C563.81,478.23 565.30,478.73 566.78,478.35 C569.33,477.68 569.72,479.47 567.62,482.24 C566.65,483.51 566.51,485.35 567.10,489.08 C567.83,493.69 567.10,497.20 559.60,525.10 C554.61,543.67 550.57,556.82 549.49,558.01 C547.01,560.75 541.92,560.62 539.29,557.75 C538.04,556.39 536.37,551.76 535.04,546.00 C530.36,525.66 509.08,437.65 505.47,423.72 C504.65,420.54 503.12,413.56 502.07,408.22 C499.86,396.88 498.40,392.64 497.00,393.50 C496.45,393.84 496.00,394.76 496.00,395.55 C496.00,396.33 493.96,404.29 491.47,413.24 C488.98,422.18 485.78,433.77 484.35,439.00 C482.92,444.23 478.72,459.21 475.00,472.30 C468.23,496.15 466.98,498.89 462.82,498.97 C458.27,499.05 456.22,496.92 449.43,485.13 L 442.50 473.06 L 402.70 473.03 L 369.79 473.01 L 385.31 472.54 C397.51,472.17 412.23,471.40 418.00,470.82 ZM 531.27 585.15 C523.14,593.21 515.60,600.05 514.50,600.35 C513.40,600.66 511.38,600.27 510.00,599.50 C507.59,598.15 395.84,485.63 395.17,483.87 C394.98,483.39 399.15,483.00 404.43,483.00 L 414.03 483.00 L 463.15 532.50 C490.17,559.72 512.76,582.00 513.37,582.00 C513.97,582.00 518.36,578.12 523.12,573.39 L 531.77 564.77 L 534.65 566.90 C536.23,568.07 539.44,569.36 541.78,569.76 L 546.03 570.50 ZM 489.00 726.50 L 489.00 738.00 L 481.38 738.00 L 481.22 709.25 C481.13,693.44 481.31,679.24 481.62,677.69 C482.11,675.24 482.58,674.93 485.34,675.19 C488.10,675.46 488.54,675.91 488.81,678.75 C488.99,680.54 489.34,682.00 489.61,682.00 C489.87,682.00 491.25,680.84 492.66,679.43 C496.20,675.89 499.05,675.00 506.82,675.02 C511.88,675.03 514.46,675.58 517.46,677.27 C525.93,682.07 530.51,693.67 528.13,704.31 C524.69,719.68 506.85,726.92 494.27,718.05 C491.89,716.37 489.73,715.00 489.47,715.00 C489.21,715.00 489.00,720.17 489.00,726.50 ZM 390.52 434.95 C389.09,430.71 388.00,426.65 388.00,425.50 C388.00,424.22 387.44,422.98 386.75,422.75 C385.82,422.44 385.52,418.27 385.57,406.22 C385.60,397.36 385.29,390.32 384.88,390.58 C384.46,390.83 383.66,390.25 383.09,389.27 C382.44,388.14 382.05,387.99 382.03,388.84 C382.01,389.57 380.66,392.05 379.03,394.34 C374.94,400.07 373.14,409.63 373.65,419.88 C373.45,419.15 373.19,418.62 372.91,418.44 C371.37,417.49 372.62,403.61 375.18,393.00 C378.83,377.93 386.51,365.30 399.28,353.36 C415.28,338.39 434.59,331.26 456.50,332.24 C466.15,332.67 469.10,333.46 478.65,338.17 C479.83,338.75 481.41,339.02 482.15,338.76 C482.89,338.49 485.19,339.12 487.25,340.16 C492.64,342.86 492.16,345.09 485.44,348.48 L 479.89 351.29 L 476.94 349.12 C474.25,347.13 472.68,346.92 458.75,346.75 C437.80,346.48 429.07,348.86 415.55,358.50 C391.25,375.84 381.21,406.70 390.52,434.95 ZM 506.00 464.00 L 506.00 536.00 L 487.00 536.00 L 487.00 501.57 C487.00,471.61 487.20,466.94 488.57,465.57 C489.74,464.41 492.20,464.00 498.07,464.00 ZM 460.25 539.62 C461.99,539.54 463.00,538.94 463.00,537.98 C463.00,535.96 457.21,529.00 455.53,529.00 C454.80,529.00 453.14,527.23 451.85,525.07 C450.56,522.91 441.63,513.01 432.01,503.07 L 414.53 485.00 L 407.32 485.00 C399.38,485.00 397.19,486.35 400.95,488.93 C402.21,489.79 404.88,492.26 406.87,494.41 C417.21,505.57 444.80,532.30 446.78,533.08 C448.03,533.57 449.33,534.76 449.68,535.73 C450.90,539.18 453.33,541.15 455.46,540.43 C456.58,540.05 458.74,539.69 460.25,539.62 ZM 499.35 713.96 C503.87,715.34 510.80,714.54 513.86,712.27 C518.61,708.75 521.00,704.18 521.00,698.60 C521.00,688.70 514.94,682.00 505.97,682.00 C496.95,682.00 490.68,687.02 489.34,695.32 C488.03,703.38 492.60,711.89 499.35,713.96 ZM 456.00 414.00 L 456.00 448.00 L 437.00 448.00 L 437.00 431.61 C437.00,417.58 437.23,415.13 438.58,414.61 C439.45,414.27 443.73,414.00 448.08,414.00 ZM 423.55 422.55 C420.11,425.98 416.02,425.63 412.77,421.63 C411.82,420.46 411.03,418.78 411.02,417.91 C411.01,417.03 408.72,415.08 405.93,413.56 C400.51,410.61 399.02,408.58 400.91,406.69 C401.80,405.80 403.34,406.21 407.44,408.42 C412.22,411.01 413.12,411.19 415.75,410.10 C417.37,409.43 419.77,409.13 421.10,409.44 C424.51,410.22 439.00,396.55 439.00,392.54 C439.00,389.34 443.91,384.00 446.85,384.00 C450.07,384.00 455.00,388.78 455.00,391.91 C455.00,394.07 456.36,395.73 461.51,399.86 C467.28,404.48 467.90,405.31 466.94,407.10 C466.23,408.43 465.45,408.82 464.68,408.24 C464.03,407.76 461.32,405.62 458.67,403.49 C454.31,400.00 453.23,399.61 447.67,399.48 L 441.50 399.34 L 433.75 406.90 C427.70,412.79 426.00,415.07 426.00,417.27 C426.00,418.93 424.99,421.10 423.55,422.55 ZM 549.66 465.74 C548.51,470.82 548.04,471.54 545.71,471.81 C543.52,472.07 542.96,471.64 542.43,469.31 C542.08,467.77 541.16,463.96 540.40,460.86 C539.63,457.75 539.04,452.35 539.10,448.86 C539.21,441.59 540.61,430.23 540.93,434.00 C541.12,436.24 541.22,436.30 541.91,434.54 C542.66,432.60 542.68,432.60 543.86,434.54 C545.02,436.46 545.08,436.45 546.65,434.25 C547.52,433.01 548.76,432.00 549.39,432.00 C550.75,432.00 557.00,445.04 557.00,447.89 C557.00,448.98 556.55,450.16 556.00,450.50 C554.40,451.49 551.07,459.48 549.66,465.74 ZM 564.03 719.75 C559.54,722.14 559.16,722.20 554.50,721.07 C549.83,719.94 547.31,718.28 544.29,714.32 C541.57,710.76 541.49,710.24 540.93,694.58 C540.62,685.74 540.56,677.94 540.79,677.25 C541.02,676.56 542.74,676.00 544.61,676.00 L 548.00 676.00 L 548.00 690.60 C548.00,701.82 548.36,705.97 549.58,708.52 C551.69,712.98 556.93,715.44 562.39,714.56 C569.57,713.40 571.30,713.46 571.79,714.91 C572.12,715.86 571.76,716.12 570.72,715.72 C569.86,715.39 568.96,715.66 568.71,716.31 C568.46,716.97 566.35,718.51 564.03,719.75 ZM 586.64 528.59 C578.10,539.07 564.00,552.92 564.00,550.83 C564.00,549.94 564.86,546.35 565.90,542.86 C566.95,539.36 568.33,534.18 568.98,531.34 C569.95,527.10 571.07,525.35 575.32,521.50 C583.03,514.50 586.00,513.50 586.00,517.89 C586.00,520.47 586.96,521.04 589.08,519.72 C590.41,518.89 591.26,518.86 592.02,519.62 C592.78,520.38 591.22,522.98 586.64,528.59 ZM 478.78 510.25 L 478.50 520.50 L 469.23 520.79 C458.89,521.11 458.64,520.95 459.18,514.37 C459.48,510.81 459.77,510.48 463.08,509.95 C467.54,509.23 473.27,505.76 475.42,502.48 C478.39,497.95 479.08,499.55 478.78,510.25 ZM 428.00 435.00 L 428.00 448.00 L 418.56 448.00 C413.37,448.00 408.89,447.63 408.60,447.17 C408.07,446.30 408.54,436.11 409.15,435.52 C409.72,434.97 415.05,434.69 421.75,434.85 ZM 343.79 417.09 C343.97,413.84 344.08,410.73 344.09,408.00 C344.12,392.40 346.44,386.52 353.79,383.45 C355.61,382.68 358.40,382.33 360.03,382.66 C363.53,383.36 364.27,382.05 363.18,377.03 C362.53,374.04 361.90,373.43 358.55,372.64 C355.90,372.01 354.10,372.08 352.85,372.86 C351.85,373.49 349.76,374.00 348.21,374.00 C345.07,374.00 338.09,378.69 335.63,382.45 C332.48,387.24 330.87,393.68 329.96,405.00 C329.29,413.40 328.72,420.08 328.17,425.46 C328.74,419.86 329.31,412.86 329.99,404.00 C330.51,397.12 331.35,390.12 331.85,388.44 C335.42,376.34 345.01,370.00 359.72,370.00 L 366.08 370.00 L 365.79 377.75 L 365.50 385.50 L 358.50 386.00 C350.54,386.57 349.56,387.01 347.49,391.01 C346.23,393.45 345.59,397.55 343.79,417.09 ZM 466.59 545.49 C467.64,541.31 463.16,538.24 460.77,541.50 C459.63,543.05 459.84,543.84 462.00,546.00 C464.65,548.65 465.83,548.52 466.59,545.49 ZM 466.47 690.68 C470.20,681.25 470.73,677.43 468.75,676.72 C467.34,676.21 464.84,677.35 464.17,678.59 C464.28,678.26 464.36,677.97 464.41,677.75 C464.97,675.32 465.50,675.00 469.01,675.00 L 472.98 675.00 L 471.31 679.25 C470.74,680.69 468.86,685.12 466.47,690.68 ZM 473.45 552.84 C476.38,551.50 476.59,550.74 474.51,549.00 C473.28,547.99 472.66,548.19 471.04,550.13 C467.77,554.06 468.64,555.03 473.45,552.84 ZM 424.00 440.50 C424.00,439.67 423.33,439.00 422.50,439.00 C421.67,439.00 421.00,439.67 421.00,440.50 C421.00,441.33 421.67,442.00 422.50,442.00 C423.33,442.00 424.00,441.33 424.00,440.50 ZM 481.34 559.55 C481.71,558.58 481.42,558.29 480.45,558.66 C478.87,559.26 478.46,561.00 479.89,561.00 C480.38,561.00 481.04,560.35 481.34,559.55 ZM 464.01 679.08 C464.00,679.12 464.00,679.16 464.00,679.20 C464.00,679.82 462.47,683.55 460.61,687.48 C458.74,691.41 455.77,698.09 454.01,702.31 C455.77,698.09 458.69,691.45 460.50,687.56 C461.92,684.51 463.31,681.12 464.01,679.08 ZM 337.07 452.49 C338.79,449.17 340.17,445.64 340.86,442.50 C341.01,441.79 341.17,441.01 341.32,440.17 C341.13,441.39 340.95,442.36 340.80,443.00 C340.11,445.93 338.75,449.30 337.07,452.49 ZM 360.64 460.46 C359.60,461.64 358.55,463.70 358.16,465.32 C358.30,464.52 358.64,463.67 359.16,462.68 C359.55,461.95 359.87,461.33 360.31,460.81 C360.41,460.69 360.52,460.57 360.64,460.46 ZM 326.65 437.16 C325.31,444.86 323.66,447.83 320.73,450.97 C323.64,447.86 325.31,444.78 326.65,437.16 ZM 358.40 467.75 C358.86,468.64 359.65,469.73 360.54,470.63 L 360.45 470.55 C359.44,469.53 358.77,468.64 358.40,467.75 Z" fill="rgb(72,203,188)"/>
<path d="M 680.64 558.72 C678.62,559.78 674.20,560.53 668.25,560.81 L 659.00 561.24 L 659.00 546.00 L 665.45 546.00 C673.03,546.00 676.34,544.74 677.93,541.24 C679.31,538.23 680.53,528.55 681.95,509.50 C683.01,495.35 685.02,484.94 687.76,479.56 C688.58,477.94 691.50,474.24 694.25,471.33 L 699.24 466.05 L 694.64 461.38 C686.19,452.81 683.48,444.48 681.97,422.50 C679.61,388.10 678.83,386.41 665.00,385.76 L 659.50 385.50 L 659.21 377.61 L 658.91 369.71 L 667.47 370.25 C682.17,371.16 689.99,376.66 693.59,388.62 C694.38,391.26 695.73,403.11 696.59,414.95 C698.43,440.36 699.76,445.38 706.31,451.64 C709.63,454.81 712.00,456.08 716.39,457.06 C722.94,458.53 725.00,460.67 725.00,466.00 C725.00,471.10 722.79,473.70 717.76,474.50 C709.26,475.85 701.53,483.56 699.21,493.00 C698.60,495.48 697.62,503.80 697.03,511.50 C695.44,532.32 694.07,542.04 692.09,546.51 C690.06,551.13 685.19,556.32 680.64,558.72 ZM 648.97 441.35 L 646.92 448.00 L 630.28 448.00 L 633.81 438.75 C637.07,430.23 637.38,428.45 637.79,416.20 C638.14,405.60 637.88,401.64 636.50,396.71 C628.70,368.92 608.15,350.85 579.95,346.99 C560.69,344.36 539.30,351.93 525.03,366.44 C522.03,369.50 519.30,372.00 518.97,372.00 C518.65,372.00 517.57,368.45 516.58,364.10 C514.84,356.42 514.84,356.16 516.67,354.35 C526.42,344.76 539.83,337.21 553.13,333.85 C560.21,332.06 563.43,331.83 575.94,332.24 C589.24,332.68 591.23,332.99 598.95,335.91 C624.05,345.38 643.01,365.46 650.02,390.00 C654.20,404.63 653.77,425.82 648.97,441.35 ZM 565.22 503.63 C567.43,494.60 567.57,492.07 567.10,489.08 C566.51,485.35 566.65,483.51 567.62,482.24 C569.72,479.47 569.33,477.68 566.78,478.35 C565.30,478.73 563.81,478.23 562.35,476.86 C559.43,474.12 558.25,475.07 557.46,480.77 C557.10,483.37 555.98,487.30 554.97,489.50 C554.13,491.33 552.43,496.63 550.87,502.16 C552.50,495.87 554.62,487.53 557.41,476.50 C560.25,465.23 561.45,462.06 563.53,460.25 L 566.11 458.00 L 613.97 458.00 C640.30,458.00 662.56,458.28 663.46,458.62 C665.80,459.52 668.26,464.83 667.58,467.54 C667.31,468.63 667.14,469.50 666.70,470.20 C664.94,473.00 658.72,473.00 623.10,473.00 C621.75,473.00 620.35,473.00 618.91,473.00 L 573.96 473.00 L 573.03 475.25 C572.63,476.23 569.37,488.09 565.22,503.63 ZM 698.52 718.53 C680.64,727.28 662.40,716.86 662.59,698.00 C662.68,688.36 666.92,681.11 674.79,677.12 C690.15,669.33 706.04,678.45 707.18,695.71 L 707.50 700.50 L 689.50 701.08 C679.60,701.40 671.39,701.74 671.25,701.83 C670.31,702.47 671.35,706.17 673.09,708.39 C676.67,712.94 681.16,714.45 690.11,714.10 C691.55,714.05 694.42,712.85 696.49,711.44 L 700.25 708.89 L 702.55 711.05 C705.63,713.94 704.81,715.45 698.52,718.53 ZM 615.00 384.00 L 615.00 448.00 L 596.29 448.00 L 595.74 437.25 C595.44,431.34 595.44,416.94 595.75,405.25 L 596.30 384.00 ZM 549.66 465.74 C551.07,459.48 554.40,451.49 556.00,450.50 C556.55,450.16 557.00,448.98 557.00,447.89 C557.00,445.04 550.75,432.00 549.39,432.00 C548.76,432.00 547.52,433.01 546.65,434.25 C545.08,436.45 545.02,436.46 543.86,434.54 C542.68,432.60 542.66,432.60 541.91,434.54 C541.22,436.30 541.12,436.24 540.93,434.00 C540.61,430.23 539.21,441.59 539.10,448.86 C539.04,452.35 539.63,457.75 540.40,460.86 C541.16,463.96 542.08,467.77 542.43,469.31 C542.08,467.77 541.08,463.80 540.22,460.50 C538.49,453.93 537.56,417.94 538.64,399.71 L 539.22 389.93 L 548.36 390.21 L 557.50 390.50 L 557.77 419.79 L 558.03 449.08 L 555.03 452.82 C553.12,455.19 551.33,459.28 550.13,464.03 C549.88,465.01 549.66,465.87 549.45,466.62 C549.52,466.34 549.59,466.05 549.66,465.74 ZM 646.94 719.53 C643.38,721.37 633.66,722.21 629.15,721.06 C623.15,719.54 618.00,716.76 618.00,715.04 C618.00,714.13 618.59,712.57 619.32,711.58 C620.58,709.85 620.83,709.87 625.00,712.00 C630.33,714.72 639.51,715.63 642.98,713.78 C644.35,713.05 645.90,711.22 646.43,709.71 C647.84,705.71 645.11,703.54 635.58,701.07 C623.03,697.81 620.08,695.23 620.04,687.50 C620.01,683.30 620.49,681.99 623.01,679.29 C627.70,674.29 639.47,673.00 648.58,676.48 C652.43,677.95 652.98,678.50 652.42,680.35 C651.34,683.93 650.43,684.23 645.58,682.58 C635.96,679.31 627.00,681.71 627.00,687.55 C627.00,690.74 630.00,692.56 638.43,694.52 C650.68,697.36 654.00,700.25 654.00,708.09 C654.00,713.31 651.67,717.08 646.94,719.53 ZM 586.64 528.59 C591.22,522.98 592.78,520.38 592.02,519.62 C591.26,518.86 590.41,518.89 589.08,519.72 C586.96,521.04 586.00,520.47 586.00,517.89 C586.00,513.50 583.03,514.50 575.32,521.50 C571.07,525.35 569.95,527.10 568.98,531.34 C568.33,534.18 566.95,539.36 565.90,542.86 C566.95,539.36 568.34,534.03 569.01,531.00 C570.18,525.65 570.81,524.91 591.35,504.25 L 612.48 483.00 L 621.80 483.00 C630.66,483.00 631.05,483.09 629.81,484.84 C627.65,487.89 602.42,513.52 583.84,531.92 C584.82,530.79 585.76,529.68 586.64,528.59 ZM 586.00 411.92 L 586.00 448.00 L 576.97 448.00 C570.52,448.00 567.80,447.63 567.44,446.71 C567.17,446.00 567.07,438.02 567.22,428.96 L 567.50 412.50 L 576.75 412.21 ZM 525.81 445.36 C522.08,430.49 520.99,427.28 519.86,425.38 C518.84,423.67 518.00,420.51 518.00,418.37 C518.00,416.22 517.10,412.79 516.00,410.74 C514.90,408.69 514.00,405.84 514.00,404.41 C514.00,402.98 513.11,400.68 512.01,399.29 C510.92,397.90 510.30,396.33 510.63,395.80 C511.34,394.64 508.06,387.00 506.85,387.00 C506.38,387.00 506.00,387.94 506.00,389.08 C506.00,390.32 505.49,390.99 504.75,390.73 C503.89,390.43 503.59,388.39 503.78,384.22 C503.94,380.89 503.64,377.90 503.12,377.58 C501.61,376.64 499.00,378.07 498.96,379.86 C498.95,380.76 498.29,382.62 497.51,384.00 L 496.10 386.50 L 495.41 383.18 C494.18,377.23 486.91,375.05 485.71,380.28 C485.43,381.50 483.09,389.92 480.50,399.00 C477.91,408.08 475.43,416.85 475.00,418.50 C475.43,416.85 477.90,408.08 480.49,399.00 C483.07,389.92 485.80,379.58 486.55,376.00 C490.21,358.68 492.23,355.00 498.07,355.00 C501.93,355.00 504.61,358.15 506.03,364.36 C506.68,367.19 512.29,390.20 518.50,415.50 C520.76,424.71 523.30,435.10 525.81,445.36 ZM 606.00 656.00 L 606.00 721.00 L 598.00 721.00 L 598.00 656.00 ZM 564.03 719.75 C566.35,718.51 568.46,716.97 568.71,716.31 C568.96,715.66 569.86,715.39 570.72,715.72 C571.76,716.12 572.12,715.86 571.79,714.91 C571.34,713.58 569.84,713.42 564.00,714.31 C566.09,713.64 568.08,712.39 569.91,710.56 L 573.50 706.97 L 574.50 675.50 L 582.00 674.88 L 582.00 721.00 L 578.52 721.00 C575.68,721.00 574.93,720.56 574.43,718.59 L 573.83 716.18 L 569.16 718.55 C566.24,720.03 563.43,720.96 560.78,721.34 C561.63,721.02 562.63,720.50 564.03,719.75 ZM 671.00 692.35 L 671.00 695.00 L 700.22 695.00 L 699.53 692.25 C697.67,684.78 690.19,680.12 682.39,681.59 C677.65,682.48 671.00,688.75 671.00,692.35 ZM 458.60 332.34 C465.52,332.65 472.20,333.51 476.50,334.84 C482.94,336.82 494.48,342.35 495.44,343.90 C495.76,344.42 494.33,345.38 492.26,346.04 C490.19,346.70 487.11,348.55 485.42,350.15 L 482.33 353.07 L 477.92 351.19 C471.80,348.58 465.84,347.18 458.73,346.75 L 458.75 346.75 C472.68,346.92 474.25,347.13 476.94,349.12 L 479.89 351.29 L 485.44 348.48 C492.16,345.09 492.64,342.86 487.25,340.16 C485.19,339.12 482.89,338.49 482.15,338.76 C481.41,339.02 479.83,338.75 478.65,338.17 C469.83,333.82 466.64,332.81 458.60,332.34 ZM 384.70 370.58 C390.27,361.68 397.60,353.84 406.12,347.59 C403.78,349.36 401.49,351.28 399.28,353.36 C393.36,358.89 388.54,364.57 384.70,370.58 ZM 438.06 348.05 C430.11,349.75 423.19,353.05 415.55,358.50 C423.56,352.79 429.88,349.63 438.06,348.05 ZM 549.73 708.82 C549.67,708.72 549.63,708.62 549.58,708.52 C548.36,705.97 548.00,701.82 548.00,690.60 C548.00,700.38 548.33,705.62 549.73,708.82 ZM 547.49 514.77 C546.04,520.15 545.73,520.89 545.28,520.99 C545.21,521.00 545.13,521.00 545.05,521.00 C545.02,521.00 545.00,521.00 544.98,521.00 C544.97,521.00 544.97,521.00 544.96,521.00 C545.47,520.93 546.05,519.79 547.49,514.77 ZM 556.05 721.43 C554.07,721.20 552.19,720.62 550.44,719.69 C551.62,720.26 552.94,720.69 554.50,721.07 C555.08,721.21 555.59,721.33 556.05,721.43 ZM 546.70 559.70 C544.21,560.50 541.21,559.85 539.29,557.75 C541.13,559.76 544.19,560.43 546.70,559.70 ZM 435.59 333.93 C436.49,333.72 437.40,333.53 438.31,333.35 C439.99,333.03 441.90,332.78 443.95,332.59 C441.11,332.89 438.32,333.34 435.59,333.93 ZM 550.78 555.09 C550.36,556.29 550.03,557.11 549.81,557.49 C550.06,556.98 550.39,556.17 550.78,555.09 ZM 554.72 713.54 C554.85,713.61 554.61,713.49 554.37,713.37 C554.48,713.42 554.60,713.48 554.72,713.54 Z" fill="rgb(137,228,149)"/>
<path d="M 0.00 512.00 L 0.00 0.00 L 512.00 0.00 L 1024.00 0.00 L 1024.00 512.00 L 1024.00 1024.00 L 512.00 1024.00 L 0.00 1024.00 L 0.00 512.00 ZM 489.00 726.50 C489.00,720.17 489.21,715.00 489.47,715.00 C489.73,715.00 491.89,716.37 494.27,718.05 C506.85,726.92 524.69,719.68 528.13,704.31 C530.51,693.67 525.93,682.07 517.46,677.27 C514.46,675.58 511.88,675.03 506.82,675.02 C499.05,675.00 496.20,675.89 492.66,679.43 C491.25,680.84 489.87,682.00 489.61,682.00 C489.34,682.00 488.99,680.54 488.81,678.75 C488.54,675.91 488.10,675.46 485.34,675.19 C482.58,674.93 482.11,675.24 481.62,677.69 C481.31,679.24 481.13,693.44 481.22,709.25 L 481.38 738.00 L 485.19 738.00 L 489.00 738.00 L 489.00 726.50 ZM 351.22 718.06 C353.92,716.38 356.33,715.00 356.57,715.00 C356.80,715.00 357.00,716.35 357.00,718.00 C357.00,720.76 357.28,721.00 360.50,721.00 L 364.00 721.00 L 364.00 688.50 L 364.00 656.00 L 360.50 656.00 L 357.00 656.00 L 357.00 668.50 C357.00,676.69 356.63,681.00 355.93,681.00 C355.35,681.00 353.25,679.77 351.28,678.26 C348.30,675.99 346.46,675.46 340.49,675.16 C332.75,674.77 329.87,675.71 324.17,680.51 C319.79,684.20 317.86,688.54 317.27,696.11 C316.65,704.03 318.03,708.82 322.35,713.74 C329.93,722.38 341.49,724.11 351.22,718.06 ZM 411.94 718.71 C417.61,715.89 419.08,713.65 416.77,711.34 C415.17,709.74 414.75,709.80 409.77,712.32 C401.27,716.62 394.87,715.76 388.27,709.43 C383.09,704.48 382.82,701.55 387.52,701.42 C389.16,701.37 397.36,701.26 405.75,701.17 L 421.00 701.00 L 420.99 696.75 C420.98,683.20 412.90,675.04 399.50,675.04 C378.84,675.04 368.50,698.36 382.38,713.63 C389.90,721.90 401.50,723.89 411.94,718.71 ZM 569.16 718.55 L 573.83 716.18 L 574.43 718.59 C574.93,720.56 575.68,721.00 578.52,721.00 L 582.00 721.00 L 582.00 697.94 L 582.00 674.88 L 578.25 675.19 L 574.50 675.50 L 574.00 691.24 L 573.50 706.97 L 569.91 710.56 C565.47,714.99 560.03,716.06 554.72,713.54 C548.98,710.81 548.00,707.47 548.00,690.60 L 548.00 676.00 L 544.61 676.00 C542.74,676.00 541.02,676.56 540.79,677.25 C540.56,677.94 540.62,685.74 540.93,694.58 C541.49,710.24 541.57,710.76 544.29,714.32 C550.30,722.19 559.03,723.68 569.16,718.55 ZM 646.94 719.53 C651.67,717.08 654.00,713.31 654.00,708.09 C654.00,700.25 650.68,697.36 638.43,694.52 C630.00,692.56 627.00,690.74 627.00,687.55 C627.00,681.71 635.96,679.31 645.58,682.58 C650.43,684.23 651.34,683.93 652.42,680.35 C652.98,678.50 652.43,677.95 648.58,676.48 C639.47,673.00 627.70,674.29 623.01,679.29 C620.49,681.99 620.01,683.30 620.04,687.50 C620.08,695.23 623.03,697.81 635.58,701.07 C645.11,703.54 647.84,705.71 646.43,709.71 C645.90,711.22 644.35,713.05 642.98,713.78 C639.51,715.63 630.33,714.72 625.00,712.00 C620.83,709.87 620.58,709.85 619.32,711.58 C618.59,712.57 618.00,714.13 618.00,715.04 C618.00,716.76 623.15,719.54 629.15,721.06 C633.66,722.21 643.38,721.37 646.94,719.53 ZM 698.52 718.53 C704.81,715.45 705.63,713.94 702.55,711.05 L 700.25 708.89 L 696.49 711.44 C694.42,712.85 691.55,714.05 690.11,714.10 C681.16,714.45 676.67,712.94 673.09,708.39 C671.35,706.17 670.31,702.47 671.25,701.83 C671.39,701.74 679.60,701.40 689.50,701.08 L 707.50 700.50 L 707.18 695.71 C706.04,678.45 690.15,669.33 674.79,677.12 C666.92,681.11 662.68,688.36 662.59,698.00 C662.40,716.86 680.64,727.28 698.52,718.53 ZM 461.56 702.00 C466.00,691.83 470.39,681.59 471.31,679.25 L 472.98 675.00 L 469.01 675.00 C465.50,675.00 464.97,675.32 464.41,677.75 C464.06,679.26 462.30,683.68 460.50,687.56 C458.69,691.45 455.77,698.09 454.01,702.31 C452.25,706.54 450.46,710.22 450.02,710.49 C449.58,710.76 446.21,704.12 442.53,695.74 C438.85,687.36 435.31,679.38 434.66,678.00 C433.34,675.19 428.34,673.95 427.47,676.22 C427.18,676.96 430.93,686.55 435.79,697.53 C440.66,708.52 444.94,718.31 445.31,719.31 C445.83,720.70 446.85,721.05 449.74,720.81 L 453.50 720.50 L 461.56 702.00 ZM 606.00 688.50 L 606.00 656.00 L 602.00 656.00 L 598.00 656.00 L 598.00 688.50 L 598.00 721.00 L 602.00 721.00 L 606.00 721.00 L 606.00 688.50 ZM 531.27 585.15 L 546.03 570.50 L 541.78 569.76 C539.44,569.36 536.23,568.07 534.65,566.90 L 531.77 564.77 L 523.12 573.39 C518.36,578.12 513.97,582.00 513.37,582.00 C512.76,582.00 490.17,559.72 463.15,532.50 L 414.03 483.00 L 404.43 483.00 C399.15,483.00 394.98,483.39 395.17,483.87 C395.84,485.63 507.59,598.15 510.00,599.50 C511.38,600.27 513.40,600.66 514.50,600.35 C515.60,600.05 523.14,593.21 531.27,585.15 ZM 366.00 553.50 L 366.00 546.00 L 359.42 546.00 C353.53,546.00 352.55,545.70 350.00,543.16 C346.17,539.33 345.35,535.47 344.01,515.00 C343.38,505.38 342.23,494.69 341.45,491.25 C339.51,482.71 334.98,474.12 330.08,469.69 L 325.99 466.00 L 329.85 462.52 C334.23,458.56 339.22,449.66 340.80,443.00 C341.39,440.52 342.37,432.88 342.98,426.00 C345.43,398.71 346.06,393.78 347.49,391.01 C349.56,387.01 350.54,386.57 358.50,386.00 L 365.50 385.50 L 365.79 377.75 L 366.08 370.00 L 359.72 370.00 C345.01,370.00 335.42,376.34 331.85,388.44 C331.35,390.12 330.51,397.12 329.99,404.00 C327.29,439.47 326.16,445.16 320.73,450.97 C317.41,454.53 310.84,457.94 307.25,457.98 C303.67,458.01 301.00,461.44 301.00,466.00 C301.00,470.56 303.67,473.99 307.25,474.02 C311.16,474.06 317.53,477.60 320.79,481.56 C325.94,487.81 327.08,492.68 329.06,517.00 C331.40,545.61 332.54,549.50 340.41,555.50 C345.58,559.44 350.51,560.91 358.75,560.96 L 366.00 561.00 L 366.00 553.50 ZM 680.64 558.72 C685.19,556.32 690.06,551.13 692.09,546.51 C694.07,542.04 695.44,532.32 697.03,511.50 C697.62,503.80 698.60,495.48 699.21,493.00 C701.53,483.56 709.26,475.85 717.76,474.50 C722.79,473.70 725.00,471.10 725.00,466.00 C725.00,460.67 722.94,458.53 716.39,457.06 C712.00,456.08 709.63,454.81 706.31,451.64 C699.76,445.38 698.43,440.36 696.59,414.95 C695.73,403.11 694.38,391.26 693.59,388.62 C689.99,376.66 682.17,371.16 667.47,370.25 L 658.91 369.71 L 659.21 377.61 L 659.50 385.50 L 665.00 385.76 C678.83,386.41 679.61,388.10 681.97,422.50 C683.48,444.48 686.19,452.81 694.64,461.38 L 699.24 466.05 L 694.25 471.33 C691.50,474.24 688.58,477.94 687.76,479.56 C685.02,484.94 683.01,495.35 681.95,509.50 C680.53,528.55 679.31,538.23 677.93,541.24 C676.34,544.74 673.03,546.00 665.45,546.00 L 659.00 546.00 L 659.00 553.62 L 659.00 561.24 L 668.25 560.81 C674.20,560.53 678.62,559.78 680.64,558.72 ZM 549.71 557.65 C550.80,556.26 555.78,539.33 561.83,516.40 C567.49,495.00 572.53,476.49 573.03,475.25 L 573.96 473.00 L 618.91 473.00 C667.69,473.00 666.17,473.17 667.58,467.54 C668.26,464.83 665.80,459.52 663.46,458.62 C662.56,458.28 640.30,458.00 613.97,458.00 L 566.11 458.00 L 563.53 460.25 C561.45,462.06 560.25,465.23 557.41,476.50 C547.35,516.28 546.03,521.00 544.91,521.00 C544.51,521.00 540.95,507.61 536.99,491.25 C533.03,474.89 524.71,440.80 518.50,415.50 C512.29,390.20 506.68,367.19 506.03,364.36 C504.61,358.15 501.93,355.00 498.07,355.00 C492.23,355.00 490.21,358.68 486.55,376.00 C485.80,379.58 483.07,389.92 480.49,399.00 C477.90,408.08 475.43,416.85 475.00,418.50 C471.05,433.43 460.72,469.67 460.10,470.79 C459.51,471.84 458.48,470.88 456.17,467.13 C450.01,457.11 454.85,458.00 406.25,458.03 C361.21,458.07 361.65,458.02 359.16,462.68 C357.43,465.95 357.73,467.83 360.45,470.55 L 362.91 473.00 L 402.70 473.03 L 442.50 473.06 L 449.43 485.13 C456.22,496.92 458.27,499.05 462.82,498.97 C466.98,498.89 468.23,496.15 475.00,472.30 C478.72,459.21 482.92,444.23 484.35,439.00 C485.78,433.77 488.98,422.18 491.47,413.24 C493.96,404.29 496.00,396.33 496.00,395.55 C496.00,394.76 496.45,393.84 497.00,393.50 C498.40,392.64 499.86,396.88 502.07,408.22 C503.12,413.56 504.65,420.54 505.47,423.72 C509.08,437.65 530.36,525.66 535.04,546.00 C536.37,551.76 538.04,556.39 539.29,557.75 C542.11,560.83 547.24,560.78 549.71,557.65 ZM 629.81 484.84 C631.05,483.09 630.66,483.00 621.80,483.00 L 612.48 483.00 L 591.35 504.25 C570.81,524.91 570.18,525.65 569.01,531.00 C568.34,534.03 566.95,539.36 565.90,542.86 C564.86,546.35 564.00,549.94 564.00,550.83 C564.00,552.24 626.35,489.72 629.81,484.84 ZM 506.00 500.00 L 506.00 464.00 L 498.07 464.00 C492.20,464.00 489.74,464.41 488.57,465.57 C487.20,466.94 487.00,471.61 487.00,501.57 L 487.00 536.00 L 496.50 536.00 L 506.00 536.00 L 506.00 500.00 ZM 478.78 510.25 C479.08,499.55 478.39,497.95 475.42,502.48 C473.27,505.76 467.54,509.23 463.08,509.95 C459.77,510.48 459.48,510.81 459.18,514.37 C458.64,520.95 458.89,521.11 469.23,520.79 L 478.50 520.50 L 478.78 510.25 ZM 550.13 464.03 C551.33,459.28 553.12,455.19 555.03,452.82 L 558.03 449.08 L 557.77 419.79 L 557.50 390.50 L 548.36 390.21 L 539.22 389.93 L 538.64 399.71 C537.56,417.94 538.49,453.93 540.22,460.50 C541.08,463.80 542.08,467.77 542.43,469.31 C542.96,471.63 543.53,472.07 545.66,471.81 C547.97,471.53 548.44,470.73 550.13,464.03 ZM 393.60 446.61 C393.89,445.84 392.72,441.23 391.00,436.36 C380.89,407.72 390.85,376.13 415.55,358.50 C427.55,349.94 437.75,346.70 453.00,346.60 C462.79,346.54 470.23,347.91 477.92,351.19 L 482.33 353.07 L 485.42 350.15 C487.11,348.55 490.19,346.70 492.26,346.04 C494.33,345.38 495.76,344.42 495.44,343.90 C494.48,342.35 482.94,336.82 476.50,334.84 C467.63,332.09 448.65,331.36 438.31,333.35 C408.02,339.20 382.33,363.48 375.18,393.00 C372.62,403.61 371.37,417.49 372.91,418.44 C373.51,418.81 374.01,420.78 374.01,422.81 C374.03,427.63 376.34,437.30 378.90,443.26 L 380.93 448.00 L 387.00 448.00 C391.26,448.00 393.22,447.59 393.60,446.61 ZM 428.00 441.50 L 428.00 435.00 L 421.75 434.85 C415.05,434.69 409.72,434.97 409.15,435.52 C408.54,436.11 408.07,446.30 408.60,447.17 C408.89,447.63 413.37,448.00 418.56,448.00 L 428.00 448.00 L 428.00 441.50 ZM 456.00 431.00 L 456.00 414.00 L 448.08 414.00 C443.73,414.00 439.45,414.27 438.58,414.61 C437.23,415.13 437.00,417.58 437.00,431.61 L 437.00 448.00 L 446.50 448.00 L 456.00 448.00 L 456.00 431.00 ZM 586.00 429.96 L 586.00 411.92 L 576.75 412.21 L 567.50 412.50 L 567.22 428.96 C567.07,438.02 567.17,446.00 567.44,446.71 C567.80,447.63 570.52,448.00 576.97,448.00 L 586.00 448.00 L 586.00 429.96 ZM 615.00 416.00 L 615.00 384.00 L 605.65 384.00 L 596.30 384.00 L 595.75 405.25 C595.44,416.94 595.44,431.34 595.74,437.25 L 596.29 448.00 L 605.64 448.00 L 615.00 448.00 L 615.00 416.00 ZM 648.97 441.35 C653.77,425.82 654.20,404.63 650.02,390.00 C643.01,365.46 624.05,345.38 598.95,335.91 C591.23,332.99 589.24,332.68 575.94,332.24 C563.43,331.83 560.21,332.06 553.13,333.85 C539.83,337.21 526.42,344.76 516.67,354.35 C514.84,356.16 514.84,356.42 516.58,364.10 C517.57,368.45 518.65,372.00 518.97,372.00 C519.30,372.00 522.03,369.50 525.03,366.44 C539.30,351.93 560.69,344.36 579.95,346.99 C608.15,350.85 628.70,368.92 636.50,396.71 C637.88,401.64 638.14,405.60 637.79,416.20 C637.38,428.45 637.07,430.23 633.81,438.75 L 630.28 448.00 L 638.60 448.00 L 646.92 448.00 L 648.97 441.35 ZM 423.55 422.55 C424.99,421.10 426.00,418.93 426.00,417.27 C426.00,415.07 427.70,412.79 433.75,406.90 L 441.50 399.34 L 447.67 399.48 C453.23,399.61 454.31,400.00 458.67,403.49 C461.32,405.62 464.03,407.76 464.68,408.24 C465.45,408.82 466.23,408.43 466.94,407.10 C467.90,405.31 467.28,404.48 461.51,399.86 C456.36,395.73 455.00,394.07 455.00,391.91 C455.00,388.78 450.07,384.00 446.85,384.00 C443.91,384.00 439.00,389.34 439.00,392.54 C439.00,396.55 424.51,410.22 421.10,409.44 C419.77,409.13 417.37,409.43 415.75,410.10 C413.12,411.19 412.22,411.01 407.44,408.42 C403.34,406.21 401.80,405.80 400.91,406.69 C399.02,408.58 400.51,410.61 405.93,413.56 C408.72,415.08 411.01,417.03 411.02,417.91 C411.03,418.78 411.82,420.46 412.77,421.63 C416.02,425.63 420.11,425.98 423.55,422.55 ZM 499.35 713.96 C492.60,711.89 488.03,703.38 489.34,695.32 C490.68,687.02 496.95,682.00 505.97,682.00 C514.94,682.00 521.00,688.70 521.00,698.60 C521.00,704.18 518.61,708.75 513.86,712.27 C510.80,714.54 503.87,715.34 499.35,713.96 ZM 334.48 713.61 C330.02,711.66 325.31,705.78 324.53,701.19 C323.52,695.17 325.42,689.76 330.01,685.61 C333.66,682.32 334.53,682.00 339.96,682.00 C347.45,682.00 350.22,683.27 353.70,688.29 C357.34,693.54 357.49,701.85 354.06,707.40 C350.04,713.91 341.44,716.64 334.48,713.61 ZM 385.25 695.34 C382.41,694.19 385.21,687.41 389.90,684.07 C398.65,677.84 411.67,682.10 413.61,691.82 C414.10,694.25 413.82,694.82 411.85,695.34 C409.09,696.08 387.08,696.08 385.25,695.34 ZM 671.00 692.35 C671.00,688.75 677.65,682.48 682.39,681.59 C690.19,680.12 697.67,684.78 699.53,692.25 L 700.22 695.00 L 685.61 695.00 L 671.00 695.00 L 671.00 692.35 Z" fill="rgb(247,248,248)"/>
</g>
</svg>