<svg width="1024" height="1024" xmlns="http://www.w3.org/2000/svg">
 <g>
  <title>Layer 1</title>
  <g id="svg_1">
   <path d="m481,706.44l0,-31.56l3.75,0.31c3.42,0.28 3.78,0.59 4.06,3.56l0.32,3.24l3.68,-2.94c9.26,-7.4 24.25,-5.47 31.11,4c7.61,10.51 6.04,25.89 -3.45,33.71c-7.96,6.57 -19.99,6.88 -27.33,0.7c-1.61,-1.35 -3.2,-2.46 -3.53,-2.46c-0.34,0 -0.61,5.17 -0.61,11.5l0,11.5l-4,0l-4,0l0,-31.56zm33.98,4.7c1.96,-1.58 4.11,-4.56 4.85,-6.74c1.67,-4.87 0.87,-12.97 -1.63,-16.39c-3.88,-5.33 -13.58,-7.75 -20.14,-5.04c-1.6,0.67 -4.18,3.05 -5.74,5.29c-2.36,3.4 -2.82,5.09 -2.82,10.31c0,5.49 0.38,6.71 3.09,10.09c5.61,6.96 15.47,8.05 22.39,2.48zm-185.67,8.42c-19.22,-8.94 -16.41,-39.05 4.17,-44.71c5.25,-1.45 13.66,0.22 18.48,3.65l3.54,2.52l0.5,-12.76l0.5,-12.76l3.5,0l3.5,0l0.26,33.03l0.27,33.03l-4.02,-0.39c-3.72,-0.35 -4.01,-0.6 -4.01,-3.43c0,-2.85 -0.11,-2.95 -1.77,-1.45c-3.19,2.89 -10.64,5.67 -15.23,5.68c-2.68,0.01 -6.6,-0.97 -9.69,-2.41zm15.19,-5.66c7.5,-2.04 11.5,-7.66 11.5,-16.1c-0.01,-9.65 -6.07,-15.79 -15.6,-15.8c-10.87,0 -18.03,9.64 -15.28,20.58c1.65,6.52 6.74,10.74 14.88,12.31c0.27,0.06 2.3,-0.39 4.5,-0.99zm46.5,6.15c-12.6,-4.33 -18.66,-19.38 -12.92,-32.05c4.16,-9.18 10.72,-13.36 20.92,-13.36c13.15,0 21.1,7.53 22.37,21.19l0.48,5.17l-13.18,0.02c-11.85,0.03 -23.64,0.75 -24.49,1.51c-0.18,0.16 0.33,1.56 1.14,3.13c4.7,9.08 16.4,11.74 25.24,5.73l3.69,-2.5l2.45,2.3l2.44,2.29l-3.03,2.71c-3.27,2.92 -11.59,5.83 -16.54,5.78c-1.69,-0.02 -5.55,-0.89 -8.57,-1.92zm23,-26.09c0,-0.57 -0.93,-2.86 -2.06,-5.07c-2.16,-4.25 -8.02,-7.82 -12.87,-7.87c-3.97,-0.03 -10.84,3.88 -13.03,7.42c-3.99,6.45 -3.76,6.56 12.96,6.56c9.72,0 15,-0.37 15,-1.04zm139.48,27.13c-4.76,-1.17 -8.41,-4.05 -10.78,-8.49c-1.94,-3.65 -2.22,-5.94 -2.53,-20.92l-0.34,-16.81l3.83,0.31l3.84,0.32l0.5,16c0.53,16.9 1.12,19.16 5.68,21.6c3.45,1.84 11.18,1.4 14.15,-0.82c5.67,-4.24 6.08,-5.64 6.39,-21.78l0.28,-15l3.75,-0.31l3.75,-0.31l0,23.06l0,23.06l-3.83,0c-3.68,0 -3.81,-0.11 -3.38,-3c0.48,-3.31 -0.8,-3.9 -2.92,-1.35c-2.87,3.46 -12.72,5.84 -18.39,4.44zm76.87,0c-6.05,-1.02 -12.35,-4.11 -12.35,-6.05c0,-0.91 0.59,-2.47 1.32,-3.46c1.26,-1.73 1.5,-1.71 5.63,0.39c8.67,4.43 20.37,3.6 21.65,-1.52c1.39,-5.53 -0.01,-6.49 -15.7,-10.86c-7.79,-2.17 -10.9,-5.49 -10.9,-11.65c0,-9.37 6.53,-13.51 20.05,-12.73c9,0.52 13.11,2.48 12.23,5.84c-0.77,2.93 -2.28,3.27 -6.55,1.48c-6.35,-2.65 -15.59,-1.69 -17.96,1.87c-1.45,2.17 -0.73,5.58 1.48,6.99c1.24,0.79 5.94,2.42 10.45,3.62c10.9,2.9 14.3,5.97 14.3,12.92c0,3.8 -0.57,5.6 -2.53,7.93c-3.74,4.44 -12.67,6.66 -21.12,5.23zm50.65,-0.03c-10.93,-2.2 -18.23,-11.19 -18.28,-22.51c-0.03,-6.97 1.71,-11.69 6.2,-16.81c4.5,-5.12 10.38,-7.13 19.06,-6.51c6.13,0.44 7.51,0.93 11.26,4c4.83,3.96 7.77,10.6 7.76,17.52l0,4.25l-17.83,0c-9.81,0 -18.1,0.26 -18.42,0.59c-1.14,1.13 1.48,6.42 4.39,8.87c4.6,3.88 10.1,5.16 15.7,3.66c2.56,-0.68 5.68,-2.21 6.94,-3.38l2.27,-2.14l2.61,2.6l2.6,2.6l-4.18,3.03c-2.3,1.66 -6.43,3.51 -9.18,4.1c-5.45,1.17 -5.76,1.17 -10.9,0.13zm19,-27.81c-0.01,-2.84 -3.73,-8.12 -7.24,-10.26c-8,-4.87 -19.47,0.16 -22.24,9.76l-0.65,2.25l15.06,0c13.69,0 15.07,-0.16 15.07,-1.75zm-255,26.77c0,-0.53 -4.27,-10.63 -9.5,-22.44c-5.23,-11.81 -9.5,-21.72 -9.5,-22.03c0,-0.3 1.71,-0.55 3.81,-0.55l3.81,0l7.84,18.1c5.37,12.39 8.1,17.65 8.66,16.66c0.62,-1.11 11.54,-26.22 14.57,-33.51c0.44,-1.05 8.31,-1.92 8.31,-0.92c0,0.19 -4.09,9.75 -9.09,21.25c-5,11.51 -9.33,21.71 -9.62,22.67c-0.39,1.32 -1.6,1.75 -4.91,1.75c-2.41,0 -4.38,-0.44 -4.38,-0.98zm153,-31.52l0,-32.5l4,0l4,0l0,32.5l0,32.5l-4,0l-4,0l0,-32.5zm-145.9,-146.09l-58.52,-58.91l10.25,-0.29l10.24,-0.28l49.4,49.78l49.4,49.79l8.83,-8.75c4.86,-4.81 9.25,-8.75 9.74,-8.75c0.5,0 1.72,0.74 2.71,1.64c1,0.9 4.07,2.15 6.83,2.77l5.01,1.13l-14.75,14.67c-9.69,9.65 -15.75,14.92 -17.68,15.39c-2.83,0.69 -5.15,-1.51 -61.46,-58.19zm-105.98,16.89c-2.4,-0.85 -6.1,-3.28 -8.2,-5.38c-5.64,-5.64 -7.53,-13.19 -9.35,-37.42c-0.82,-11 -2.13,-22.1 -2.91,-24.68c-3.13,-10.32 -9.41,-15.82 -20.81,-18.24c-3.57,-0.76 -5.24,-5.43 -3.82,-10.7c0.91,-3.37 1.52,-3.94 5.25,-4.89c11.21,-2.83 16.36,-7.5 19.24,-17.43c0.81,-2.78 2.13,-13.9 2.94,-24.7c1.99,-26.34 3.28,-31.6 9.4,-38.2c4.55,-4.9 9.73,-6.89 19.42,-7.44l8.81,-0.5l-0.3,7.89l-0.29,7.89l-6.5,0.5c-12.22,0.94 -12.63,1.79 -15.11,31.09c-2.54,29.88 -4.95,37.49 -14.56,45.92l-3.34,2.94l4.52,4.17c5.48,5.04 9.95,14.01 11.43,22.88c0.6,3.58 1.72,14.95 2.5,25.28c1.88,24.93 3.44,27.67 15.81,27.71l5.75,0.01l0,7.5l0,7.5l-7.75,-0.08c-4.26,-0.04 -9.72,-0.77 -12.13,-1.62zm313.09,-5.55l0.29,-7.25l7.81,-0.5c6.85,-0.44 8.04,-0.81 9.7,-3c2.33,-3.08 3.59,-10.91 5,-31c1.74,-24.76 4.84,-34.17 13.87,-42.12l4.44,-3.91l-4.1,-3.52c-5.64,-4.82 -10.06,-12.97 -11.76,-21.68c-0.79,-4 -2.09,-15.86 -2.91,-26.36c-0.81,-10.5 -1.9,-20.18 -2.41,-21.5c-1.9,-4.94 -5.37,-6.96 -13,-7.6l-7.14,-0.6l0,-6.86l0,-6.85l8.39,0c10.73,0 17.44,3.09 22.27,10.27c4.15,6.15 5.13,11.22 6.85,35.21c0.79,11.01 1.88,21.52 2.42,23.35c2.84,9.64 8.97,15.41 19.28,18.16c3.99,1.06 4.88,1.75 5.8,4.55c0.68,2.06 0.77,4.54 0.23,6.63c-0.77,2.99 -1.43,3.48 -6.4,4.83c-7.89,2.13 -13.06,6.08 -16.12,12.28c-3.02,6.13 -4.22,13.45 -5.8,35.22c-1.45,20.03 -3.28,26.47 -9.14,32.22c-5.39,5.28 -10.99,7.28 -20.45,7.28l-7.42,0l0.3,-7.25zm-119.97,4.49c-1.08,-1.08 -3.43,-8.69 -6.11,-19.75c-2.39,-9.89 -10.16,-41.84 -17.26,-70.99c-19.3,-79.27 -18.08,-74.62 -19.08,-72.92c-0.3,0.51 -2.63,8.57 -5.18,17.92c-23.61,86.5 -23.57,86.39 -29.64,86.47c-4.21,0.05 -6.44,-2.41 -13.1,-14.43l-6.37,-11.52l-40.6,-0.01c-38.05,-0.01 -40.69,-0.12 -42.25,-1.84c-2.46,-2.72 -2.12,-8.38 0.66,-11c2.31,-2.16 2.55,-2.17 45.07,-2.17c26.44,0 43.46,0.38 44.61,0.99c1.02,0.55 3.54,3.77 5.6,7.16c3.56,5.85 3.79,6.05 4.65,3.76c1.27,-3.4 22.11,-78.34 26.81,-96.41c4.17,-16 5.64,-18.5 10.89,-18.5c3.11,0 6.65,3.31 7.47,7c0.3,1.38 6.13,25.23 12.94,53c6.81,27.77 15.4,62.99 19.09,78.25c3.7,15.26 6.92,27.75 7.16,27.75c0.88,0 2.54,-5.62 9.41,-31.83c4.92,-18.75 7.58,-27.2 9.01,-28.63c1.98,-1.99 3.29,-2.05 50.41,-2.33l48.37,-0.28l2.77,2.38c3.29,2.83 3.71,7.62 0.94,10.68c-1.77,1.96 -2.99,2.01 -47,2.01l-45.18,0l-5.17,19.75c-12.6,48.14 -16.96,63.37 -18.67,65.26c-2.27,2.51 -7.85,2.63 -10.25,0.23zm24.24,-7.99c0.39,-0.96 2.07,-6.98 3.73,-13.38l3.04,-11.63l21.17,-21.16l21.18,-21.16l9.45,0.29l9.45,0.29l-24.6,25c-13.53,13.75 -28.55,29.16 -33.38,34.25c-8.47,8.92 -11.51,11.19 -10.04,7.5zm-76.48,-50.25l0,-36l9.5,0l9.5,0l0,23.84c0,13.12 0.29,29.32 0.65,36l0.66,12.16l-10.16,0l-10.15,0l0,-36zm-27.8,15.29c0.27,-5.2 0.53,-5.8 2.55,-5.91c1.24,-0.07 3.23,-0.19 4.43,-0.26c1.2,-0.06 4.36,-2.37 7.01,-5.12c2.65,-2.75 5.06,-5 5.35,-5c0.29,0 0.4,4.84 0.24,10.75l-0.28,10.75l-9.8,0.29l-9.8,0.28l0.3,-5.78zm81.47,-51.67c-1.35,-6.86 -1.67,-14.72 -1.67,-41.09l0,-32.61l9.25,0.29l9.25,0.29l0,29.5l0,29.5l-2.76,3.61c-1.57,2.05 -3.56,6.78 -4.63,11c-1.76,6.95 -2.04,7.41 -4.82,7.69c-2.96,0.3 -2.96,0.3 -4.62,-8.18zm-162.08,-18.44c-5.98,-11.58 -7.8,-37.18 -3.73,-52.47c4.41,-16.54 15.93,-33.91 29.14,-43.95c8.06,-6.13 22.28,-13.01 31.39,-15.2c7.77,-1.86 26.73,-2.22 33.75,-0.63c9.32,2.11 24.82,8.57 26.3,10.97c0.32,0.52 -1.11,1.48 -3.18,2.14c-2.07,0.66 -5.12,2.48 -6.78,4.05l-3.02,2.86l-5.98,-2.41c-8.87,-3.57 -21.26,-5.04 -31.23,-3.69c-15.63,2.1 -26.27,7.35 -37.79,18.65c-20.36,19.97 -25.91,48.57 -14.62,75.43l2.97,7.07l-7.88,0c-7.63,0 -7.92,-0.09 -9.34,-2.82zm29.82,1.45c-0.29,-0.75 -0.39,-3.79 -0.22,-6.75l0.31,-5.38l9.5,0l9.5,0l0.3,6.75l0.29,6.75l-9.58,0c-7.18,0 -9.7,-0.34 -10.1,-1.37zm28.59,-15.63l0,-17l9.5,0l9.5,0l0,17l0,17l-9.5,0l-9.5,0l0,-17zm130.8,15.25c-0.24,-0.96 -0.41,-8.95 -0.37,-17.75l0.07,-16l9,0l9,0l0.27,17.75l0.28,17.75l-8.91,0c-7.65,0 -8.97,-0.25 -9.34,-1.75zm28.2,-30.25l0,-32l8.85,0l8.84,0l0.71,31c0.4,17.05 0.44,31.45 0.1,32c-0.34,0.55 -4.64,1 -9.56,1l-8.94,0l0,-32zm37.59,23.75c7.79,-19.45 6.28,-43.49 -3.82,-60.49c-4.87,-8.2 -16.29,-19.72 -23.77,-23.98c-12.78,-7.27 -30.48,-10.58 -44.47,-8.3c-13.19,2.14 -26.38,9.18 -36.87,19.67c-3.12,3.12 -5.83,5.48 -6.01,5.26c-0.18,-0.23 -1.14,-3.78 -2.12,-7.9l-1.78,-7.49l6.32,-5.81c12.59,-11.58 32,-18.72 50.87,-18.7c22.21,0.01 40.29,7.34 56.33,22.82c6.62,6.39 15.33,18.67 17.5,24.67c0.6,1.65 2.01,5.46 3.15,8.46c5.02,13.28 5.21,35.76 0.45,51.29l-2.69,8.75l-8.2,0l-8.2,0l3.31,-8.25zm-218.93,-15.88c-1.02,-0.59 -2.49,-2.6 -3.27,-4.47c-1,-2.4 -3.03,-4.31 -6.9,-6.49c-3.02,-1.71 -5.48,-3.4 -5.46,-3.76c0.02,-0.36 0.64,-1.46 1.39,-2.44c1.28,-1.69 1.65,-1.62 6.62,1.31c4.66,2.75 5.57,2.97 8.09,1.93c1.56,-0.65 3.98,-0.89 5.39,-0.53c2.18,0.54 3.71,-0.43 10.41,-6.64c6.61,-6.12 7.87,-7.8 7.96,-10.58c0.14,-4.07 3.98,-8.2 7.64,-8.2c3.32,0 8.47,5.01 8.47,8.24c0,1.75 1.76,3.81 6.51,7.62c5.68,4.55 6.38,5.47 5.47,7.18c-0.58,1.08 -1.28,1.96 -1.57,1.96c-0.29,0 -3.19,-2.16 -6.44,-4.79c-5.66,-4.58 -6.2,-4.79 -11.96,-4.72l-6.03,0.08l-7.49,7.44c-5.79,5.75 -7.49,8.08 -7.49,10.26c0,5.56 -6.56,9.38 -11.34,6.6z" fill="#ffffff" id="svg_2"/>
  </g>
 </g>

</svg>